<svg viewBox="0 0 200 200" xmlns="http://www.w3.org/2000/svg">
  <path fill="#6666FF" d="M45.6,-78.6C59.7,-70.8,72.1,-59.8,80.7,-46.2C89.3,-32.6,94,-16.3,92.9,-0.6C91.9,15.1,85.1,30.2,76.3,43.4C67.5,56.6,56.6,67.9,43.6,75.7C30.5,83.5,15.2,87.8,-0.6,88.7C-16.4,89.7,-32.7,87.4,-46.7,80.1C-60.7,72.8,-72.3,60.6,-80.4,46.5C-88.6,32.3,-93.2,16.1,-93.6,-0.2C-94.1,-16.6,-90.2,-33.3,-82.1,-47.4C-73.9,-61.5,-61.4,-73,-47,-80.7C-32.6,-88.3,-16.3,-91.9,-0.3,-91.4C15.7,-91,31.5,-86.4,45.6,-78.6Z" transform="translate(100 100)" />
</svg>