<svg xmlns="http://www.w3.org/2000/svg" x="0px" y="0px"
width="16" height="16"
viewBox="0 0 171 171"
style=" fill:#000000;"><g fill="none" fill-rule="nonzero" stroke="none" stroke-width="1" stroke-linecap="butt" stroke-linejoin="miter" stroke-miterlimit="10" stroke-dasharray="" stroke-dashoffset="0" font-family="none" font-weight="none" font-size="none" text-anchor="none" style="mix-blend-mode: normal"><path d="M0,171.98863v-171.98863h171.98863v171.98863z" fill="none"></path><g fill="#6666ff"><path d="M85.5,21.375c-17.65943,0 -32.0625,14.40307 -32.0625,32.0625c0,17.65943 14.40307,32.0625 32.0625,32.0625c17.65943,0 32.0625,-14.40307 32.0625,-32.0625c0,-17.65943 -14.40307,-32.0625 -32.0625,-32.0625zM85.5,85.5c-29.43237,0 -53.4375,24.00513 -53.4375,53.4375h10.6875c0,-23.67115 19.07885,-42.75 42.75,-42.75c23.67115,0 42.75,19.07885 42.75,42.75h10.6875c0,-29.43237 -24.00513,-53.4375 -53.4375,-53.4375zM85.5,32.0625c11.85645,0 21.375,9.51855 21.375,21.375c0,11.85645 -9.51855,21.375 -21.375,21.375c-11.85645,0 -21.375,-9.51855 -21.375,-21.375c0,-11.85645 9.51855,-21.375 21.375,-21.375z"></path></g></g></svg>