<svg xmlns="http://www.w3.org/2000/svg" x="0px" y="0px"
width="16" height="16"
viewBox="0 0 171 171"
style=" fill:#000000;"><g fill="none" fill-rule="nonzero" stroke="none" stroke-width="1" stroke-linecap="butt" stroke-linejoin="miter" stroke-miterlimit="10" stroke-dasharray="" stroke-dashoffset="0" font-family="none" font-weight="none" font-size="none" text-anchor="none" style="mix-blend-mode: normal"><path d="M0,171.98863v-171.98863h171.98863v171.98863z" fill="none"></path><g fill="#6666ff"><path d="M48.09375,21.375c-8.7908,0 -16.03125,7.24045 -16.03125,16.03125v96.1875c0,6.95756 4.47806,12.83786 10.6875,15.05017v-15.05017c0,-2.94975 2.394,-5.34375 5.34375,-5.34375h80.15625h10.6875v-10.6875v-96.1875zM48.09375,32.0625h80.15625v85.5h-80.15625c-1.88003,0 -3.66604,0.38361 -5.34375,0.98108v-81.13733c0,-3.0082 2.33555,-5.34375 5.34375,-5.34375zM53.4375,42.75v10.6875h10.6875v-10.6875zM53.4375,64.125v10.6875h10.6875v-10.6875zM53.4375,85.5v10.6875h10.6875v-10.6875zM53.4375,138.9375v21.375l16.03125,-10.6875l16.03125,10.6875v-21.375zM96.1875,138.9375v10.6875h42.75v-10.6875z"></path></g></g></svg>