<svg xmlns="http://www.w3.org/2000/svg" x="0px" y="0px"
width="16" height="16"
viewBox="0 0 171 171"
style=" fill:#000000;"><g fill="none" fill-rule="nonzero" stroke="none" stroke-width="1" stroke-linecap="butt" stroke-linejoin="miter" stroke-miterlimit="10" stroke-dasharray="" stroke-dashoffset="0" font-family="none" font-weight="none" font-size="none" text-anchor="none" style="mix-blend-mode: normal"><path d="M0,171.98863v-171.98863h171.98863v171.98863z" fill="none"></path><g id="original-icon" fill="#6666ff"><path d="M25.7168,12.77491l-7.59814,7.59814l3.79906,3.75733l7.5564,7.55639l3.75732,3.79907l7.59815,-7.59815l-3.79907,-3.75732l-7.55639,-7.5564zM145.2832,12.77491l-3.75732,3.79906l-11.31372,11.31372l7.55639,7.59815l3.75733,-3.79907l11.31371,-11.31372zM85.5,21.375c-23.5459,0 -42.75,19.2041 -42.75,42.75c0,14.77881 6.47095,23.29542 11.68945,30.55957c5.26026,7.22241 9.68555,13.35938 9.68555,28.22168v10.6875c0,6.93018 4.55053,12.8584 10.771,15.0293c-0.04176,0.33398 -0.0835,0.66797 -0.0835,1.00195c0,5.88647 4.80103,10.6875 10.6875,10.6875c5.88647,0 10.6875,-4.80103 10.6875,-10.6875c0,-0.33398 0,-0.66797 -0.04175,-1.00195c6.22046,-2.21264 10.72925,-8.09912 10.72925,-15.0293v-10.6875c0,-14.8623 4.4253,-20.99927 9.68555,-28.22168c5.2185,-7.26415 11.68945,-15.78076 11.68945,-30.55957c0,-23.5459 -19.2041,-42.75 -42.75,-42.75zM85.5,32.0625c17.78467,0 32.0625,14.27784 32.0625,32.0625c0,11.93995 -4.21655,16.78272 -9.68555,24.21387c-4.71753,6.55444 -9.39331,15.78077 -10.6875,29.22363h-23.37891c-1.29419,-13.44287 -5.96997,-22.66919 -10.6875,-29.22363c-5.469,-7.43115 -9.68555,-12.27392 -9.68555,-24.21387c0,-17.78466 14.27784,-32.0625 32.0625,-32.0625zM10.6875,64.125v10.6875h21.375v-10.6875zM138.9375,64.125v10.6875h21.375v-10.6875zM33.23145,103.45167l-3.75732,3.79906l-7.5564,7.5564l-3.79906,3.75732l7.59814,7.55639l11.31372,-11.31371l3.79907,-3.75733zM137.76855,103.45167l-7.55639,7.59814l15.07104,15.07104l7.55639,-7.55639l-11.31371,-11.31372zM74.8125,128.25h21.375v5.34375c0,3.00586 -2.33789,5.34375 -5.34375,5.34375h-10.6875c-3.00586,0 -5.34375,-2.33789 -5.34375,-5.34375z"></path></g></g></svg>