<svg xmlns="http://www.w3.org/2000/svg" x="0px" y="0px"
width="64" height="64"
viewBox="0 0 172 172"
style=" fill:#6666ff;"><g fill="#6666ff" fill-rule="nonzero" stroke="none" stroke-width="1" stroke-linecap="butt" stroke-linejoin="miter" stroke-miterlimit="10" stroke-dasharray="" stroke-dashoffset="0" font-family="none" font-weight="none" font-size="none" text-anchor="none" style="mix-blend-mode: normal"><path d="M0,172v-172h172v172z" fill="none"></path><g fill="#6666ff"><path d="M135.4977,92.37173c0.37801,0.37808 0.89075,0.59048 1.42538,0.59048c0.53464,0 1.04737,-0.21241 1.42538,-0.59048l3.5213,-3.5213l3.5213,3.5213c0.78731,0.78712 2.06364,0.78697 2.85077,-0.00034c0.78712,-0.78731 0.78697,-2.06364 -0.00034,-2.85077l-3.51962,-3.52062l3.52096,-3.52096c0.78731,-0.78712 0.78746,-2.06346 0.00034,-2.85077c-0.78712,-0.78731 -2.06346,-0.78746 -2.85077,-0.00034l-3.52264,3.5213l-3.5213,-3.5213c-0.78731,-0.78722 -2.06372,-0.78714 -2.85093,0.00017c-0.78722,0.78731 -0.78714,2.06372 0.00017,2.85093l3.5213,3.52096l-3.5213,3.52096c-0.37808,0.37801 -0.59048,0.89075 -0.59048,1.42538c0,0.53464 0.21241,1.04737 0.59048,1.42538z"></path><path d="M137.85901,38.52498c0.75284,0.81631 2.02412,0.86993 2.84304,0.11993l10.71641,-9.8171c0.53556,-0.48525 0.77034,-1.22009 0.61534,-1.92598c-0.155,-0.70588 -0.67605,-1.27476 -1.36564,-1.49099c-0.68959,-0.21624 -1.44217,-0.04673 -1.97248,0.44426l-9.23593,8.45991l-4.29698,-4.66046c-0.48631,-0.53696 -1.22337,-0.77165 -1.93062,-0.61471c-0.70725,0.15693 -1.27587,0.68134 -1.48943,1.3736c-0.21355,0.69226 -0.03918,1.44587 0.45674,1.97397z"></path><path d="M137.85901,146.02498c0.75284,0.81631 2.02412,0.86993 2.84304,0.11993l10.71641,-9.8171c0.53556,-0.48525 0.77034,-1.22009 0.61534,-1.92598c-0.155,-0.70588 -0.67605,-1.27476 -1.36564,-1.49099c-0.68959,-0.21624 -1.44217,-0.04673 -1.97248,0.44426l-9.23593,8.45991l-4.29798,-4.66046c-0.75718,-0.80631 -2.02269,-0.85179 -2.8358,-0.10191c-0.81311,0.74987 -0.87001,2.01492 -0.12751,2.83476z"></path><path d="M118.06624,33.70024c0.78419,12.74889 11.47762,22.61412 24.24828,22.37026c12.77066,-0.24387 23.07967,-10.51016 23.37656,-23.27969c0.29689,-12.76954 -9.52385,-23.50384 -22.26938,-24.34096c-12.74553,-0.83712 -23.88589,8.52048 -25.26174,21.21915h-12.30337c-1.1132,0 -2.01562,0.90243 -2.01562,2.01563v52.29405h-16.9158l6.99287,-6.99287c0.76891,-0.79016 0.76028,-2.05149 -0.01938,-2.83105c-0.77965,-0.77956 -2.04098,-0.78805 -2.83105,-0.01904l-10.07812,10.07813c-0.78686,0.7871 -0.78686,2.06299 0,2.85009l10.07813,10.07813c0.79007,0.769 2.0514,0.76052 2.83105,-0.01904c0.77965,-0.77956 0.78829,-2.04089 0.01938,-2.83105l-6.28203,-6.28203h16.20428v52.29438c0,1.1132 0.90243,2.01563 2.01563,2.01563h12.30203c1.36883,12.71548 12.51701,22.09221 25.27899,21.26215c12.76198,-0.83006 22.60162,-11.57188 22.31181,-24.35754c-0.28981,-12.78566 -10.60605,-23.07061 -23.39254,-23.32157c-12.78648,-0.25096 -23.49836,9.62126 -24.28964,22.38571h-10.19436v-50.27876h10.23669c1.08004,12.7348 12.00588,22.3551 24.77496,21.8146c12.76908,-0.54051 22.84285,-11.04971 22.84285,-23.83022c0,-12.78051 -10.07377,-23.28972 -22.84285,-23.83022c-12.76908,-0.54051 -23.69491,9.0798 -24.77496,21.8146h-10.23669v-50.27842zM141.86977,12.42969c10.94646,0 19.82031,8.87386 19.82031,19.82031c0,10.94646 -8.87386,19.82031 -19.82031,19.82031c-10.94646,0 -19.82031,-8.87386 -19.82031,-19.82031c0.0124,-10.94131 8.879,-19.80791 19.82031,-19.82031zM141.86977,119.92969c10.94646,0 19.82031,8.87386 19.82031,19.82031c0,10.94646 -8.87386,19.82031 -19.82031,19.82031c-10.94646,0 -19.82031,-8.87386 -19.82031,-19.82031c0.0124,-10.94131 8.879,-19.80791 19.82031,-19.82031zM141.86977,66.17969c10.94646,0 19.82031,8.87386 19.82031,19.82031c0,10.94646 -8.87386,19.82031 -19.82031,19.82031c-10.94646,0 -19.82031,-8.87386 -19.82031,-19.82031c0.0124,-10.94131 8.879,-19.80791 19.82031,-19.82031z"></path><path d="M69.78127,93.22736c4.69852,-9.02205 4.42707,-19.82632 -0.71857,-28.60105c-4.99439,-8.68291 -14.11566,-14.17411 -24.12636,-14.52459c-0.27077,-0.01008 -0.54288,-0.01657 -0.81633,-0.01948c-16.97904,-0.23481 -31.11102,12.98514 -32.00779,29.94211c-0.03158,0.51264 -0.04502,4.27984 -0.04905,5.9125l-5.5638,14.57566c-0.3914,1.0251 -0.25349,2.17714 0.36882,3.08089c0.62231,0.90374 1.64938,1.44352 2.74666,1.44352h6.73487v7.72656c-0.00849,2.33108 0.93649,4.56428 2.61561,6.18125c1.67406,1.6153 3.92701,2.49012 6.25247,2.42782c0.45688,-0.01411 5.97969,-0.03998 10.37745,-0.05745l2.91325,11.58178c0.22528,0.89603 1.03091,1.52416 1.95482,1.52415h27.64934c0.62637,0.00027 1.21726,-0.29067 1.59898,-0.78729c0.38171,-0.49662 0.51085,-1.14248 0.34946,-1.74769c-0.04602,-0.17267 -4.59227,-17.39417 -3.5905,-28.1566c0.22676,-2.43924 2.43252,-8.32084 3.31066,-10.50208zM66.16188,91.45025c-0.0302,0.05736 -0.05744,0.11623 -0.08163,0.17637c-0.33594,0.83145 -3.29723,8.22207 -3.62409,11.73027c-0.83984,9.01723 1.81137,21.67402 3.07954,27.03423h-23.50118l-2.91459,-11.58984c-0.22528,-0.89603 -1.03091,-1.52416 -1.95482,-1.52415h-0.00739c-1.15764,0.00437 -11.33084,0.04233 -12.06553,0.06551c-1.23706,0.03484 -2.43561,-0.43218 -3.32297,-1.2948c-0.88736,-0.86262 -1.38807,-2.04749 -1.38822,-3.28504v-9.74219c0,-1.1132 -0.90243,-2.01562 -2.01562,-2.01562h-7.73933l5.33469,-13.975c0.08723,-0.22792 0.1322,-0.46983 0.1327,-0.71387c0.00605,-2.66062 0.02352,-5.68473 0.04334,-6.06065c0.77229,-14.68168 12.92019,-26.17951 27.62213,-26.144c0.10526,0 0.21041,0.00067 0.31545,0.00202c0.23941,0.00269 0.47837,0.00829 0.71689,0.0168c8.62631,0.30475 16.48482,5.03897 20.78647,12.52241c4.46368,7.61042 4.68454,16.98539 0.5842,24.79756z"></path><path d="M43.96045,60.10762c-10.38986,0 -18.8125,8.42264 -18.8125,18.8125c0,10.38986 8.42264,18.8125 18.8125,18.8125c10.38986,0 18.8125,-8.42264 18.8125,-18.8125c-0.01166,-10.38502 -8.42748,-18.80084 -18.8125,-18.8125zM43.96045,93.70137c-8.16346,0 -14.78125,-6.61779 -14.78125,-14.78125c0,-8.16346 6.61779,-14.78125 14.78125,-14.78125c8.16346,0 14.78125,6.61779 14.78125,14.78125c-0.00926,8.15962 -6.62163,14.77199 -14.78125,14.78125z"></path><path d="M50.7877,72.52555l-9.23627,8.45958l-4.29597,-4.66012c-0.75466,-0.81848 -2.02993,-0.87022 -2.84841,-0.11556c-0.81848,0.75466 -0.87022,2.02993 -0.11556,2.84841l5.6582,6.1359c0.75288,0.81653 2.02441,0.87016 2.84337,0.11993l10.71641,-9.81677c0.53556,-0.48525 0.77034,-1.22009 0.61534,-1.92598c-0.155,-0.70588 -0.67605,-1.27476 -1.36564,-1.49099c-0.68959,-0.21624 -1.44217,-0.04673 -1.97248,0.44426z"></path></g></g></svg>