<svg xmlns="http://www.w3.org/2000/svg" x="0px" y="0px"
width="16" height="16"
viewBox="0 0 171 171"
style=" fill:#000000;"><g fill="none" fill-rule="nonzero" stroke="none" stroke-width="1" stroke-linecap="butt" stroke-linejoin="miter" stroke-miterlimit="10" stroke-dasharray="" stroke-dashoffset="0" font-family="none" font-weight="none" font-size="none" text-anchor="none" style="mix-blend-mode: normal"><path d="M0,171.98863v-171.98863h171.98863v171.98863z" fill="none"></path><g fill="#6666ff"><path d="M10.6875,21.375v5.34375v122.90625h64.125v-21.375h21.31238c-0.00309,1.72299 -0.00696,3.49362 0,5.469c0.00917,2.61957 0.00772,3.24368 0.02087,5.2185h-10.64575v10.6875h32.0625v-10.6875h-10.72925c-0.01329,-1.97572 -0.01156,-2.62189 -0.02087,-5.26026c-0.00693,-1.96772 -0.00306,-3.72422 0,-5.42724h37.46887c8.7908,0 16.03125,-7.24045 16.03125,-16.03125v-53.4375c0,-8.7908 -7.24045,-16.03125 -16.03125,-16.03125h-69.46875v-21.375zM21.375,32.0625h42.75v106.875h-42.75zM32.0625,42.75v10.6875h21.375v-10.6875zM74.8125,53.4375h69.46875c3.0082,0 5.34375,2.33555 5.34375,5.34375v53.4375c0,3.0082 -2.33555,5.34375 -5.34375,5.34375h-69.46875zM32.0625,64.125v10.6875h21.375v-10.6875z"></path></g></g></svg>